<svg id="Layer_1" data-name="Layer 1" xmlns="http://www.w3.org/2000/svg" viewBox="0 0 640.24 151.09"><defs><style>.cls-1{fill:#8ac14d;}</style></defs><polyline class="cls-1" points="204.2 50.12 215.53 50.12 229.76 94.38 244.42 49.97 253.28 49.97 267.94 94.38 282.17 50.12 293.16 50.15 272.37 110.23 263.34 110.23 248.68 67.36 234.03 110.23 225 110.23 204.2 50.12"/><polyline class="cls-1" points="309.38 50.12 353.62 50.12 353.62 59.49 319.87 59.49 319.87 75.03 349.78 75.03 349.78 84.39 319.87 84.39 319.87 100.42 354.04 100.42 354.04 109.79 309.38 109.79 309.38 50.12"/><polyline class="cls-1" points="380.38 50.12 391.55 50.12 409.72 78.34 427.89 50.12 439.06 50.12 439.06 109.79 428.57 109.79 428.57 67 409.71 95.13 409.37 95.13 390.67 67.17 390.67 109.79 380.38 109.79 380.38 50.12"/><rect class="cls-1" x="467.9" y="50.12" width="10.49" height="59.67"/><polyline class="cls-1" points="506.99 50.12 516.71 50.12 548.71 91.38 548.71 50.12 559 50.12 559 109.79 550.22 109.79 517.28 67.34 517.28 109.79 506.99 109.79 506.99 50.12"/><path class="cls-1" d="M585.63,50.12h22.24a35.17,35.17,0,0,1,12.82,2.26,30.48,30.48,0,0,1,10,6.26,28.14,28.14,0,0,1,6.52,9.43,29.69,29.69,0,0,1,2.3,11.71V80a30.05,30.05,0,0,1-2.3,11.77,28,28,0,0,1-6.52,9.46,30.93,30.93,0,0,1-10,6.31,34.76,34.76,0,0,1-12.82,2.3H585.63V50.12m22.25,50.11a23.45,23.45,0,0,0,8.52-1.49,18.58,18.58,0,0,0,6.51-4.17,19.1,19.1,0,0,0,4.18-6.39,21.47,21.47,0,0,0,1.49-8.05V80a21.79,21.79,0,0,0-1.49-8.09,18.74,18.74,0,0,0-4.18-6.42,19.15,19.15,0,0,0-6.51-4.23,22.83,22.83,0,0,0-8.52-1.53H596.12v40.55Z"/><path class="cls-1" d="M145.42,75.71a70,70,0,1,1-70-70,70.12,70.12,0,0,1,70,70M75.38.33a75.38,75.38,0,1,0,75.37,75.38A75.46,75.46,0,0,0,75.38.33Z"/><path class="cls-1" d="M133,70.52c-11.39-2.58-23.57-4.55-36.28,2C82.63,79.81,80.44,94.8,80.17,97.18l-10.61,5.5L93.17,37.35l-5-1.81L71.69,81.08l-5.82-6C70.4,66.55,68.55,56.7,60.5,48.8,55.07,43.47,45,37,27.57,36.33c-.18,0-2.29,0-3.32,0L24,38.6c-.15,1.13-3.42,27.91,15.47,41.22,9.85,6.94,19,4.72,23.35-.27l6.89,7.12L56.22,123.89h5.67l5-13.81L82.49,102c2.9,3.24,9.14,7.25,21.32,4.27,25-6.12,31-31.48,31.21-32.55l.59-2.6-2.6-.59M58.76,76c-2.82,3.25-9.11,4.45-16.26-.58C31,67.32,29.11,52.57,29,44.65l30,31ZM61.92,71,34.17,42.29C45.7,44,52.74,48.66,56.76,52.61,62.63,58.37,64.37,64.93,61.92,71Zm37.26,6.29c8.59-4.44,16.91-4.4,25.26-3L86.26,94C87.56,89.34,90.89,81.56,99.18,77.27Zm3.36,23.81c-8.2,2-12.7.18-15-1.69l40.17-20.81C124.49,85.83,117.22,97.49,102.54,101.08Z"/></svg>